<?xml version="1.0" encoding="UTF-8" ?>
<!DOCTYPE svg PUBLIC "-//W3C//DTD SVG 1.1//EN" "http://www.w3.org/Graphics/SVG/1.1/DTD/svg11.dtd">
<svg width="129pt" height="167pt" viewBox="0 0 129 167" version="1.1" xmlns="http://www.w3.org/2000/svg">
<g id="#ffffffff">
</g>
<g id="#1e3050ff">
<path fill="#1e3050" opacity="1.00" d=" M 51.93 4.95 C 58.85 1.30 67.36 1.23 74.35 4.74 C 81.30 8.03 86.35 14.84 87.72 22.37 C 90.86 24.46 94.50 26.36 96.11 29.99 C 98.48 35.13 98.45 41.14 97.50 46.61 C 96.55 50.77 91.84 52.17 88.08 52.02 C 71.36 51.97 54.64 52.02 37.93 52.00 C 34.10 52.14 29.51 50.20 29.02 45.93 C 28.55 40.53 28.14 34.64 30.71 29.67 C 32.43 26.22 35.95 24.37 39.04 22.33 C 40.23 14.93 45.17 8.22 51.93 4.95 M 59.44 20.47 C 54.49 22.98 54.43 30.89 59.35 33.48 C 64.02 36.52 71.47 32.84 70.86 26.99 C 71.43 21.20 64.12 17.52 59.44 20.47 Z" />
<path fill="#1e3050" opacity="1.00" d=" M 60.42 62.49 C 65.19 61.39 70.26 63.22 74.26 65.81 C 81.11 70.24 84.47 79.27 82.19 87.10 C 80.20 95.35 72.28 101.10 64.05 101.89 C 54.18 101.93 44.61 94.02 43.88 83.94 C 42.56 73.80 50.52 64.12 60.42 62.49 Z" />
<path fill="#1e3050" opacity="1.00" d=" M 50.38 112.47 C 55.86 111.54 61.45 112.19 66.98 111.99 C 73.99 111.77 81.49 112.52 87.40 116.63 C 94.34 121.16 98.09 129.70 97.84 137.83 C 97.50 141.09 93.82 142.19 91.03 142.02 C 72.32 141.97 53.60 142.02 34.88 142.00 C 32.37 142.07 29.28 140.86 28.87 138.06 C 27.91 125.58 37.79 113.55 50.38 112.47 Z" />
</g>
<g id="#a5acb9ff">
<path fill="#a5acb9" opacity="1.00" d=" M 3.52 42.04 C 3.43 32.34 11.25 23.43 20.89 22.31 C 26.91 21.77 33.01 21.83 39.04 22.33 C 35.95 24.37 32.43 26.22 30.71 29.67 C 28.14 34.64 28.55 40.53 29.02 45.93 C 29.51 50.20 34.10 52.14 37.93 52.00 C 54.64 52.02 71.36 51.97 88.08 52.02 C 91.84 52.17 96.55 50.77 97.50 46.61 C 98.45 41.14 98.48 35.13 96.11 29.99 C 94.50 26.36 90.86 24.46 87.72 22.37 C 94.09 21.81 100.59 21.65 106.94 22.51 C 116.08 24.13 123.14 32.72 123.18 41.98 C 123.31 74.65 123.17 107.33 123.25 140.01 C 123.32 145.64 121.72 151.54 117.62 155.59 C 113.45 160.21 107.09 162.20 100.99 162.02 C 74.97 161.92 48.95 162.13 22.93 161.91 C 12.49 161.70 3.35 152.40 3.52 141.92 C 3.51 108.63 3.51 75.33 3.52 42.04 M 60.42 62.49 C 50.52 64.12 42.56 73.80 43.88 83.94 C 44.61 94.02 54.18 101.93 64.05 101.89 C 72.28 101.10 80.20 95.35 82.19 87.10 C 84.47 79.27 81.11 70.24 74.26 65.81 C 70.26 63.22 65.19 61.39 60.42 62.49 M 50.38 112.47 C 37.79 113.55 27.91 125.58 28.87 138.06 C 29.28 140.86 32.37 142.07 34.88 142.00 C 53.60 142.02 72.32 141.97 91.03 142.02 C 93.82 142.19 97.50 141.09 97.84 137.83 C 98.09 129.70 94.34 121.16 87.40 116.63 C 81.49 112.52 73.99 111.77 66.98 111.99 C 61.45 112.19 55.86 111.54 50.38 112.47 Z" />
</g>
</svg>
