<?xml version="1.0" encoding="UTF-8" ?>
<!DOCTYPE svg PUBLIC "-//W3C//DTD SVG 1.1//EN" "http://www.w3.org/Graphics/SVG/1.1/DTD/svg11.dtd">
<svg width="148pt" height="167pt" viewBox="0 0 148 167" version="1.1" xmlns="http://www.w3.org/2000/svg">
<g id="#ffffffff">
</g>
<g id="#1e3050ff">
<path fill="#1e3050" opacity="1.00" d=" M 25.49 12.02 C 27.81 4.31 37.37 0.04 44.71 3.18 C 47.06 3.79 48.60 6.11 50.87 6.67 C 55.17 2.92 61.35 0.72 66.86 3.05 C 69.93 4.09 72.37 6.33 74.24 8.92 C 76.52 6.21 79.22 3.63 82.76 2.75 C 88.17 0.86 94.03 3.24 98.06 6.95 C 101.94 3.51 107.36 1.00 112.59 2.57 C 118.14 3.78 122.81 8.37 123.73 14.03 C 125.54 21.09 120.91 28.54 114.25 31.06 C 114.23 38.04 114.19 45.02 114.27 52.00 C 87.67 52.00 61.07 52.00 34.46 52.01 C 34.53 45.02 34.56 38.03 34.45 31.05 C 27.03 28.38 22.43 19.47 25.49 12.02 Z" />
<path fill="#1e3050" opacity="1.00" d=" M 34.56 103.68 C 37.26 102.00 40.25 103.58 43.02 104.20 C 49.06 106.00 55.32 107.10 61.23 109.29 C 61.37 110.04 61.66 111.53 61.80 112.27 C 56.68 114.86 51.14 116.45 45.95 118.87 C 39.10 122.02 34.02 129.26 34.23 136.92 C 34.21 145.28 34.24 153.64 34.23 162.00 C 27.47 161.99 20.72 162.02 13.96 162.01 C 10.92 162.02 7.41 161.09 5.77 158.30 C 3.73 154.77 4.61 150.55 5.22 146.76 C 6.82 137.04 11.99 127.92 19.66 121.71 C 24.02 117.98 29.27 115.62 34.45 113.31 C 34.51 110.10 34.52 106.89 34.56 103.68 Z" />
<path fill="#1e3050" opacity="1.00" d=" M 109.59 104.53 C 111.14 103.67 112.78 103.96 114.23 104.86 C 114.34 107.70 113.86 110.65 114.57 113.42 C 122.12 116.63 129.45 120.85 134.65 127.36 C 139.95 133.75 143.13 141.81 143.90 150.06 C 144.45 153.16 144.30 156.67 142.20 159.19 C 140.21 161.54 136.96 162.07 134.05 162.02 C 104.21 161.98 74.36 162.01 44.51 162.00 C 44.54 153.66 44.45 145.32 44.54 136.98 C 44.48 132.89 47.34 129.21 51.14 127.87 C 70.58 120.00 90.14 112.39 109.59 104.53 M 67.16 132.32 C 63.18 133.66 63.16 140.32 67.15 141.67 C 70.43 143.08 74.84 140.83 74.54 136.98 C 74.80 133.16 70.43 130.93 67.16 132.32 M 97.17 132.32 C 93.16 133.66 93.17 140.34 97.17 141.68 C 100.45 143.07 104.83 140.83 104.54 136.99 C 104.81 133.16 100.44 130.93 97.17 132.32 Z" />
</g>
<g id="#a5acb9ff">
<path fill="#a5acb9" opacity="1.00" d=" M 34.46 52.01 C 61.07 52.00 87.67 52.00 114.27 52.00 C 113.97 64.42 108.39 76.90 98.13 84.19 C 84.70 94.19 65.00 94.43 51.33 84.75 C 40.70 77.49 34.56 64.77 34.46 52.01 Z" />
</g>
</svg>
