<?xml version="1.0" encoding="UTF-8" ?>
<!DOCTYPE svg PUBLIC "-//W3C//DTD SVG 1.1//EN" "http://www.w3.org/Graphics/SVG/1.1/DTD/svg11.dtd">
<svg width="216pt" height="142pt" viewBox="0 0 216 142" version="1.1" xmlns="http://www.w3.org/2000/svg">
<g id="#ffffffff">
</g>
<g id="#1e3050ff">
<path fill="#1e3050" opacity="1.00" d=" M 98.87 5.17 C 102.80 3.74 106.78 2.14 111.02 2.01 C 115.17 1.97 119.12 3.46 122.96 4.86 C 150.49 14.83 178.05 24.70 205.56 34.69 C 208.94 35.64 210.68 38.81 211.43 42.00 C 210.67 45.16 208.98 48.32 205.64 49.28 C 178.11 59.28 150.54 69.15 123.01 79.12 C 116.40 82.09 108.77 83.06 102.01 79.97 C 85.08 73.83 68.12 67.75 51.19 61.60 C 54.94 59.12 58.64 56.47 62.91 54.94 C 77.70 49.37 92.50 43.83 107.30 38.29 C 109.70 37.36 112.21 36.65 114.45 35.35 C 117.12 33.80 117.60 29.72 115.42 27.56 C 113.54 25.24 110.13 25.76 107.67 26.71 C 91.02 33.04 74.33 39.28 57.68 45.61 C 51.04 48.14 45.26 52.46 40.25 57.44 L 39.15 57.35 C 31.72 54.62 24.25 52.01 16.85 49.21 C 13.19 47.99 10.55 43.78 11.83 39.99 C 12.56 37.27 14.91 35.37 17.51 34.53 C 44.62 24.72 71.75 14.97 98.87 5.17 Z" />
<path fill="#1e3050" opacity="1.00" d=" M 123.02 90.00 C 137.50 84.76 152.01 79.61 166.49 74.36 C 167.96 89.28 169.58 104.19 171.08 119.10 C 171.03 124.28 166.61 128.00 162.55 130.50 C 148.05 138.87 131.06 141.09 114.61 142.00 L 107.67 142.00 C 91.21 141.03 74.17 138.78 59.72 130.25 C 55.56 127.60 50.93 123.50 51.62 118.04 C 53.35 103.51 54.56 88.91 56.28 74.37 C 70.83 79.67 85.45 84.77 100.01 90.02 C 107.33 92.82 115.69 92.72 123.02 90.00 Z" />
</g>
<g id="#a5acb9ff">
<path fill="#a5acb9" opacity="1.00" d=" M 107.67 26.71 C 110.13 25.76 113.54 25.24 115.42 27.56 C 117.60 29.72 117.12 33.80 114.45 35.35 C 112.21 36.65 109.70 37.36 107.30 38.29 C 92.50 43.83 77.70 49.37 62.91 54.94 C 58.64 56.47 54.94 59.12 51.19 61.60 C 45.66 65.42 42.14 71.51 39.33 77.48 C 37.28 83.01 34.80 89.45 37.73 95.13 C 43.17 108.70 43.67 123.80 41.02 138.06 C 40.76 139.91 39.17 141.00 37.77 142.00 L 34.62 142.00 C 28.22 139.83 21.51 138.76 15.05 136.76 C 13.32 136.27 12.16 134.67 11.58 133.04 C 10.88 130.41 12.99 128.32 14.24 126.26 C 19.62 118.69 23.58 110.06 25.35 100.91 C 26.89 94.34 26.13 87.47 27.99 80.95 C 29.82 72.45 34.55 64.97 40.01 58.33 C 39.80 58.09 39.37 57.59 39.15 57.35 L 40.25 57.44 C 45.26 52.46 51.04 48.14 57.68 45.61 C 74.33 39.28 91.02 33.04 107.67 26.71 Z" />
</g>
</svg>
