<?xml version="1.0" encoding="UTF-8" ?>
<!DOCTYPE svg PUBLIC "-//W3C//DTD SVG 1.1//EN" "http://www.w3.org/Graphics/SVG/1.1/DTD/svg11.dtd">
<svg width="612pt" height="612pt" viewBox="0 0 612 612" version="1.1" xmlns="http://www.w3.org/2000/svg">
<g id="#007affff">
<path fill="#007aff" opacity="1.00" d=" M 167.76 0.00 L 175.41 0.00 C 191.87 1.19 207.84 8.79 218.78 21.22 C 226.92 29.73 230.46 41.20 235.07 51.76 C 264.70 51.73 294.34 51.76 323.97 51.75 C 334.82 51.78 345.68 51.60 356.52 52.03 C 351.66 77.94 362.83 104.71 380.83 123.15 C 394.93 135.20 411.99 145.71 431.07 146.16 C 437.39 146.72 442.03 139.63 440.78 133.87 C 439.96 130.91 438.56 127.73 435.62 126.35 C 431.21 124.18 426.19 124.00 421.54 122.62 C 399.55 116.43 381.90 96.77 378.41 74.16 C 378.04 64.36 377.24 54.32 379.77 44.72 C 384.41 29.63 394.84 16.39 408.59 8.57 C 417.36 3.28 427.55 1.25 437.59 0.00 L 447.13 0.00 C 465.87 1.84 483.47 12.27 494.41 27.54 C 499.63 34.84 501.28 43.90 505.46 51.74 C 523.63 51.84 541.81 51.59 559.97 51.87 C 576.00 51.62 591.18 64.97 592.36 81.06 C 593.24 107.03 592.98 133.02 592.98 159.00 C 592.34 169.80 593.20 180.67 592.49 191.45 C 586.45 195.13 579.38 191.43 572.93 191.49 C 420.27 191.51 267.62 191.50 114.96 191.50 C 82.97 191.68 50.99 191.09 19.00 191.25 C 19.01 156.49 18.97 121.73 19.02 86.97 C 19.30 74.15 25.53 60.05 38.13 55.13 C 53.38 48.90 70.11 52.64 86.05 51.99 C 83.05 69.13 86.70 87.04 95.03 102.20 C 104.39 119.21 119.37 133.23 137.28 140.87 C 145.87 144.31 155.25 147.42 164.60 145.81 C 168.98 142.75 172.96 136.43 169.83 131.19 C 167.51 126.37 161.97 124.78 157.12 123.96 C 141.68 121.41 127.59 112.18 118.52 99.52 C 103.01 77.20 103.77 44.88 120.56 23.47 C 131.94 9.24 149.72 1.05 167.76 0.00 M 161.78 22.92 C 147.01 26.02 135.22 37.88 130.02 51.76 C 157.20 51.67 184.38 51.88 211.56 51.65 C 208.10 43.12 202.57 35.31 195.00 29.96 C 185.62 23.02 173.20 19.98 161.78 22.92 M 400.42 51.75 C 427.59 51.74 454.76 51.78 481.94 51.72 C 475.44 32.46 454.34 18.94 434.08 22.56 C 418.51 25.05 405.91 37.33 400.42 51.75 Z" />
<path fill="#007aff" opacity="1.00" d=" M 19.09 214.32 C 37.04 213.89 55.07 215.58 72.94 213.11 C 107.63 212.85 142.33 213.07 177.02 213.00 C 271.01 213.00 365.00 213.00 458.99 213.00 C 502.94 213.10 546.91 212.74 590.86 213.33 C 593.24 213.42 592.66 216.36 592.78 217.97 C 592.52 251.65 593.14 285.32 593.00 318.99 C 593.00 376.34 593.00 433.69 593.00 491.04 C 593.12 516.35 592.56 541.66 592.74 566.98 C 592.44 573.66 593.81 580.52 591.81 587.05 C 588.43 600.08 576.75 610.68 563.24 612.00 L 49.33 612.00 C 38.55 610.87 28.50 604.28 23.18 594.83 C 20.05 589.44 18.83 583.16 18.99 576.98 C 19.08 456.09 18.87 335.20 19.09 214.32 M 400.68 280.72 C 392.94 285.42 387.45 292.80 380.93 298.94 C 371.17 309.16 360.23 318.30 351.41 329.40 C 341.94 342.15 342.17 361.30 352.53 373.47 C 354.80 376.72 358.89 378.31 360.55 382.03 C 339.61 403.18 318.33 423.99 297.58 445.31 C 287.95 437.23 278.83 428.39 271.60 418.05 C 285.09 397.76 284.19 370.54 273.91 349.09 C 267.43 337.20 259.51 325.66 248.43 317.61 C 237.98 309.26 226.02 302.63 213.04 299.20 C 199.27 295.34 184.39 296.19 171.10 301.41 C 144.87 311.83 129.36 342.36 134.48 369.80 C 138.87 389.35 148.95 407.70 163.77 421.28 C 174.57 431.03 187.17 439.40 201.50 442.75 C 220.01 447.24 240.27 444.35 256.59 434.47 C 264.38 442.34 271.88 450.53 280.26 457.79 C 281.56 458.70 281.92 460.59 280.90 461.87 C 258.39 484.03 236.21 506.53 213.80 528.79 C 211.10 531.71 208.53 535.11 207.68 539.08 C 208.13 541.10 209.27 542.88 210.28 544.68 C 213.38 550.05 221.79 551.97 226.32 547.28 C 246.34 527.31 266.32 507.28 286.33 487.29 C 289.32 484.25 292.50 481.39 295.07 477.99 C 295.84 476.32 298.40 476.29 299.59 477.47 C 322.30 500.74 345.55 523.51 368.45 546.60 C 371.25 549.84 376.13 550.97 379.99 549.00 C 385.69 546.85 389.46 538.85 385.34 533.73 C 365.45 513.92 345.77 493.89 325.67 474.29 C 321.55 470.07 316.92 466.22 314.10 460.94 C 313.61 459.00 315.63 457.94 316.67 456.68 C 336.69 437.21 356.28 417.28 375.97 397.47 C 380.10 400.09 382.71 404.37 386.47 407.40 C 399.49 415.81 418.42 416.01 430.08 405.05 C 445.11 389.09 461.65 374.58 476.18 358.12 C 478.28 355.67 478.57 351.98 477.10 349.15 C 474.44 343.86 466.98 340.43 461.68 343.74 C 448.84 356.57 435.88 369.29 423.27 382.36 C 420.39 385.23 417.66 388.42 413.85 390.09 C 410.12 392.20 405.25 392.98 401.57 390.35 C 398.01 388.12 391.89 386.68 392.16 381.46 C 409.62 363.15 428.56 346.26 445.34 327.31 C 450.90 319.35 440.43 308.22 431.93 311.87 C 428.13 313.91 425.41 317.39 422.32 320.30 C 406.74 335.66 391.72 351.55 375.68 366.42 C 367.66 362.02 362.71 350.50 368.44 342.50 C 382.23 327.94 396.73 314.08 410.94 299.94 C 414.15 296.96 416.07 292.47 415.35 288.08 C 415.26 285.58 413.00 284.14 411.34 282.63 C 408.44 280.26 404.18 278.65 400.68 280.72 Z" />
<path fill="#007aff" opacity="1.00" d=" M 185.54 319.78 C 200.00 316.00 215.39 320.52 227.58 328.56 C 239.85 336.85 250.79 348.01 256.12 362.06 C 259.93 372.15 262.02 383.49 258.83 394.04 C 255.79 405.29 247.85 415.41 236.96 419.93 C 228.01 424.35 217.51 424.55 207.98 422.06 C 188.29 416.86 171.35 402.80 161.94 384.82 C 156.97 375.08 154.30 363.86 156.06 352.94 C 157.51 344.05 161.26 335.23 168.09 329.14 C 173.05 324.68 179.09 321.46 185.54 319.78 Z" />
</g>
</svg>
