<?xml version="1.0" encoding="UTF-8" ?>
<!DOCTYPE svg PUBLIC "-//W3C//DTD SVG 1.1//EN" "http://www.w3.org/Graphics/SVG/1.1/DTD/svg11.dtd">
<svg width="146pt" height="167pt" viewBox="0 0 146 167" version="1.1" xmlns="http://www.w3.org/2000/svg">
<g id="#ffffffff">
</g>
<g id="#1e3050ff">
<path fill="#1e3050" opacity="1.00" d=" M 34.37 8.75 C 36.86 2.34 46.42 1.11 50.75 6.31 C 54.69 10.92 52.80 17.48 53.22 23.00 C 66.66 23.00 80.09 23.01 93.52 22.99 C 93.87 18.01 92.51 12.63 94.74 7.97 C 97.81 1.94 107.24 1.39 111.18 6.82 C 114.53 11.49 112.83 17.65 113.22 22.99 C 119.54 23.30 126.01 22.27 132.22 23.74 C 138.61 25.29 143.03 31.45 143.17 37.92 C 143.33 46.27 143.18 54.64 143.23 63.00 C 96.66 63.00 50.09 63.00 3.51 63.00 C 3.52 54.99 3.50 46.98 3.50 38.96 C 3.36 32.99 6.61 26.70 12.37 24.49 C 19.09 21.82 26.50 23.45 33.52 22.99 C 33.80 18.26 32.73 13.29 34.37 8.75 Z" />
</g>
<g id="#a5acb9ff">
<path fill="#a5acb9" opacity="1.00" d=" M 3.51 63.00 C 50.09 63.00 96.66 63.00 143.23 63.00 C 143.24 90.69 143.22 118.37 143.24 146.06 C 143.21 150.36 142.23 154.95 139.14 158.13 C 135.84 161.74 130.78 163.10 126.02 163.02 C 90.69 162.98 55.36 163.01 20.03 163.00 C 14.39 163.07 8.25 160.65 5.56 155.42 C 3.03 151.05 3.50 145.84 3.51 141.00 C 3.52 115.00 3.51 89.00 3.51 63.00 M 26.17 83.33 C 24.65 83.90 23.33 85.33 23.35 87.03 C 23.19 91.47 22.86 96.00 23.62 100.40 C 25.40 103.91 29.87 102.83 33.07 103.05 C 36.51 102.78 41.68 104.12 43.22 99.93 C 43.79 95.98 43.56 91.95 43.47 87.97 C 43.65 85.47 41.65 82.99 39.06 83.10 C 34.77 82.95 30.42 82.69 26.17 83.33 M 66.22 83.31 C 64.66 83.87 63.32 85.33 63.35 87.05 C 63.19 91.48 62.88 95.99 63.61 100.38 C 65.37 103.90 69.83 102.83 73.02 103.05 C 76.47 102.78 81.67 104.13 83.22 99.93 C 83.79 95.99 83.56 91.97 83.47 88.00 C 83.67 85.52 81.69 83.02 79.11 83.10 C 74.82 82.94 70.48 82.70 66.22 83.31 M 106.18 83.33 C 104.63 83.90 103.30 85.36 103.34 87.08 C 103.19 91.49 102.89 95.98 103.60 100.35 C 105.11 103.60 109.12 102.94 112.03 103.05 C 115.11 102.87 118.40 103.50 121.31 102.31 C 124.64 100.01 123.22 95.41 123.57 91.99 C 123.57 88.89 124.03 84.04 120.04 83.22 C 115.45 82.85 110.75 82.71 106.18 83.33 M 26.20 123.32 C 24.63 123.89 23.29 125.37 23.34 127.12 C 23.20 131.53 22.87 136.03 23.62 140.40 C 25.15 143.59 29.12 142.94 32.03 143.05 C 35.10 142.86 38.41 143.51 41.32 142.30 C 44.42 140.29 43.31 136.12 43.57 133.02 C 43.35 129.76 44.46 124.99 40.69 123.39 C 35.93 122.69 30.98 122.79 26.20 123.32 M 66.20 123.32 C 64.65 123.88 63.30 125.35 63.34 127.08 C 63.19 131.50 62.88 136.01 63.61 140.39 C 65.14 143.58 69.10 142.94 72.00 143.05 C 75.09 142.87 78.40 143.50 81.32 142.31 C 84.42 140.28 83.30 136.12 83.57 133.01 C 83.35 129.76 84.46 125.02 80.72 123.40 C 75.95 122.68 70.99 122.79 66.20 123.32 M 106.17 123.33 C 104.63 123.91 103.31 125.35 103.35 127.07 C 103.19 131.49 102.87 136.00 103.61 140.38 C 105.35 143.88 109.78 142.84 112.95 143.05 C 116.42 142.76 121.66 144.17 123.22 139.93 C 123.79 135.98 123.56 131.96 123.47 127.98 C 123.66 125.50 121.67 123.01 119.09 123.10 C 114.79 122.95 110.43 122.69 106.17 123.33 Z" />
</g>
</svg>
