<?xml version="1.0" encoding="UTF-8" ?>
<!DOCTYPE svg PUBLIC "-//W3C//DTD SVG 1.1//EN" "http://www.w3.org/Graphics/SVG/1.1/DTD/svg11.dtd">
<svg width="1080pt" height="952pt" viewBox="0 0 1080 952" version="1.1" xmlns="http://www.w3.org/2000/svg">
<g id="#a5acb9ff">
<path fill="#a5acb9" opacity="1.00" d=" M 728.36 17.04 C 735.92 24.47 743.35 32.02 750.87 39.49 C 673.09 117.30 595.30 195.09 517.49 272.87 C 510.04 265.40 502.57 257.97 495.13 250.49 C 547.86 197.77 600.59 145.04 653.31 92.31 C 678.12 67.02 703.34 42.13 728.36 17.04 Z" />
<path fill="#a5acb9" opacity="1.00" d=" M 528.39 283.75 C 617.29 194.84 706.19 105.94 795.10 17.03 C 802.67 24.46 810.10 32.02 817.62 39.49 C 728.75 128.42 639.81 217.28 550.94 306.21 C 543.32 298.82 535.91 291.23 528.39 283.75 Z" />
<path fill="#a5acb9" opacity="1.00" d=" M 461.86 216.97 C 524.50 156.53 586.80 95.74 649.40 35.27 C 656.84 42.72 664.08 50.38 671.49 57.86 C 609.11 118.66 546.46 179.19 483.98 239.88 C 476.70 232.16 469.18 224.66 461.86 216.97 Z" />
<path fill="#a5acb9" opacity="1.00" d=" M 561.75 317.12 C 654.34 224.54 746.91 131.94 839.52 39.37 C 846.99 46.98 855.08 54.00 861.77 62.34 C 768.86 154.35 676.67 247.10 584.13 339.50 C 576.66 332.05 569.21 324.58 561.75 317.12 Z" />
<path fill="#a5acb9" opacity="1.00" d=" M 595.05 350.41 C 687.55 257.75 780.19 165.22 872.76 72.63 C 880.46 79.93 887.79 87.59 895.25 95.12 C 802.66 187.70 710.09 280.30 617.49 372.87 C 610.01 365.37 602.51 357.91 595.05 350.41 Z" />
<path fill="#a5acb9" opacity="1.00" d=" M 628.39 383.75 C 717.25 294.88 806.11 206.02 894.98 117.16 C 902.78 124.43 910.26 132.04 917.44 139.92 C 863.76 193.06 810.34 246.48 756.95 299.92 C 729.11 327.76 701.53 355.88 673.50 383.54 C 665.75 390.90 658.36 398.63 650.74 406.12 C 643.29 398.66 635.83 391.22 628.39 383.75 Z" />
<path fill="#a5acb9" opacity="1.00" d=" M 661.64 417.00 C 746.83 331.78 832.04 246.58 917.25 161.39 C 924.79 168.84 932.22 176.40 939.61 184.00 C 854.46 269.17 769.28 354.32 684.13 439.50 C 676.63 432.00 669.12 424.51 661.64 417.00 Z" />
<path fill="#a5acb9" opacity="1.00" d=" M 694.89 450.52 C 768.60 374.99 842.26 299.42 915.98 223.90 C 923.74 231.12 931.13 238.74 938.85 246.01 C 865.00 321.49 791.42 397.24 717.51 472.66 C 709.99 465.26 702.42 457.90 694.89 450.52 Z" />
<path fill="#a5acb9" opacity="1.00" d=" M 728.13 484.00 C 785.40 423.47 842.77 363.03 900.20 302.65 C 907.90 309.84 915.48 317.15 923.16 324.37 C 865.84 384.92 808.38 445.34 751.03 505.86 C 743.34 498.64 735.63 491.42 728.13 484.00 Z" />
</g>
<g id="#1e3050ff">
<path fill="#1e3050" opacity="1.00" d=" M 424.21 201.60 C 478.19 255.01 531.67 308.94 585.44 362.57 C 645.75 422.91 706.12 483.19 766.39 543.57 C 729.86 561.80 692.45 579.10 659.61 603.67 C 632.04 624.06 607.87 648.49 583.94 672.92 C 556.45 700.42 528.96 727.91 501.47 755.40 C 466.81 789.44 432.75 824.08 398.57 858.59 C 396.71 860.69 394.41 862.49 393.07 865.00 C 379.31 893.05 367.25 921.88 354.08 950.20 C 338.11 953.02 321.42 950.14 306.88 943.13 C 281.53 930.85 261.80 907.01 255.52 879.43 C 227.05 876.64 202.58 852.25 199.70 823.79 C 183.80 821.94 168.77 813.80 158.53 801.50 C 150.56 792.12 145.41 780.37 144.13 768.12 C 128.74 766.38 114.19 758.70 103.98 747.07 C 95.34 737.45 89.83 725.12 88.45 712.26 C 55.10 704.63 26.93 677.39 18.66 644.14 C 16.26 634.41 15.83 624.22 17.28 614.31 C 44.88 600.91 73.12 588.86 100.92 575.91 C 104.82 574.02 108.01 571.03 110.96 567.92 C 179.12 499.74 247.30 431.58 315.46 363.41 C 332.93 346.13 349.56 327.92 364.20 308.15 C 378.46 288.80 390.84 268.10 401.68 246.65 C 409.48 231.78 416.56 216.55 424.21 201.60 M 401.38 413.65 C 398.45 414.69 396.33 417.07 394.04 419.06 C 378.58 432.91 364.80 448.48 349.81 462.81 C 345.45 467.48 340.16 471.46 337.11 477.20 C 333.81 483.06 335.69 491.03 340.81 495.24 C 346.37 500.06 355.78 500.63 361.05 495.07 C 380.39 476.39 399.48 457.44 418.08 438.03 C 422.24 433.92 422.57 427.16 419.82 422.19 C 416.59 415.66 408.60 410.94 401.38 413.65 M 469.55 413.61 C 466.55 414.09 464.07 415.94 462.00 418.06 C 439.30 439.36 417.44 461.54 395.82 483.92 C 393.18 486.89 389.72 489.41 388.47 493.35 C 384.82 504.19 397.09 516.35 407.91 512.74 C 411.83 511.45 414.47 508.09 417.44 505.43 C 437.75 486.41 456.63 465.94 476.67 446.66 C 481.03 441.75 487.20 437.32 487.72 430.21 C 489.06 420.49 478.93 411.82 469.55 413.61 M 533.33 414.46 C 532.02 415.02 530.82 415.81 529.75 416.74 C 507.41 437.05 486.84 459.17 465.43 480.43 C 460.73 484.87 459.95 492.43 462.78 498.09 C 465.29 503.44 471.22 506.90 477.08 506.70 C 483.57 506.03 488.52 501.26 492.84 496.80 C 511.75 477.04 532.04 458.64 550.46 438.42 C 554.55 434.35 555.12 427.61 552.25 422.70 C 548.89 416.11 540.57 411.42 533.33 414.46 M 307.21 455.36 C 294.90 475.24 284.23 496.08 272.02 516.01 C 253.56 547.47 256.42 589.23 277.17 618.90 C 287.83 633.86 292.96 652.54 306.38 665.55 C 311.44 670.88 318.31 673.75 324.55 677.38 C 335.45 683.46 346.30 689.64 356.97 696.11 C 386.46 714.15 425.83 714.22 455.44 696.41 C 474.84 684.68 494.82 673.95 514.41 662.53 C 494.54 651.01 474.33 640.06 454.66 628.21 C 443.65 621.53 430.94 618.44 418.37 616.28 C 424.32 606.60 429.92 596.46 432.55 585.32 C 437.96 563.10 444.45 541.16 450.42 519.09 C 428.26 524.97 406.29 531.59 383.98 536.94 C 373.07 539.58 363.15 545.08 353.59 550.80 C 351.27 537.30 347.30 523.85 339.79 512.27 C 328.48 493.56 318.07 474.33 307.21 455.36 M 539.31 475.50 C 534.56 477.22 531.49 481.55 527.82 484.80 C 507.27 504.57 487.67 525.30 467.21 545.15 C 462.35 549.75 458.20 556.70 460.66 563.56 C 462.75 570.83 470.63 575.43 478.02 574.15 C 483.71 573.63 487.22 568.73 491.16 565.21 C 499.60 556.62 508.36 548.38 516.82 539.82 C 529.24 526.91 542.05 514.39 554.71 501.72 C 558.72 497.36 561.45 490.81 558.88 485.04 C 556.46 477.17 546.96 472.86 539.31 475.50 M 536.45 546.54 C 533.49 547.05 531.01 548.84 528.89 550.88 C 510.80 567.45 494.16 585.51 476.47 602.50 C 472.73 606.21 469.26 610.73 468.64 616.14 C 468.07 624.97 476.18 632.98 485.04 632.30 C 492.35 632.38 496.60 625.80 501.56 621.54 C 516.76 606.40 531.91 591.22 547.07 576.05 C 551.03 571.97 555.36 567.02 554.74 560.90 C 554.41 552.00 545.11 544.89 536.45 546.54 M 108.75 615.12 C 116.04 622.42 123.33 629.71 130.63 637.00 C 137.95 629.66 145.30 622.35 152.61 615.00 C 145.34 607.70 138.04 600.42 130.75 593.13 C 123.40 600.45 116.08 607.79 108.75 615.12 M 142.00 648.38 C 149.33 655.70 156.65 663.05 164.00 670.36 C 171.36 663.08 178.62 655.69 186.00 648.43 C 178.77 641.06 171.40 633.84 164.15 626.51 C 156.51 633.53 149.42 641.12 142.00 648.38 M 175.38 681.76 C 182.67 689.05 189.95 696.34 197.25 703.62 C 204.59 696.38 212.05 689.27 219.10 681.75 C 212.04 674.25 204.64 667.09 197.41 659.76 C 190.03 667.05 182.72 674.42 175.38 681.76 M 230.48 693.13 C 223.21 700.43 215.90 707.69 208.64 715.00 C 215.93 722.35 223.30 729.63 230.59 737.00 C 237.93 729.75 245.18 722.41 252.50 715.13 C 245.12 707.83 238.05 700.24 230.48 693.13 M 242.00 748.37 C 249.33 755.71 256.66 763.05 264.01 770.37 C 271.18 762.88 278.54 755.59 285.87 748.25 C 278.59 740.95 271.33 733.62 263.86 726.51 C 256.58 733.80 249.29 741.09 242.00 748.37 M 275.25 781.63 C 282.59 788.95 289.90 796.30 297.25 803.62 C 304.51 796.26 311.98 789.10 319.10 781.61 C 311.82 774.27 304.60 766.88 297.24 759.64 C 289.90 766.96 282.57 774.29 275.25 781.63 M 308.64 815.00 C 315.90 822.31 323.21 829.56 330.47 836.87 C 337.81 829.53 345.18 822.23 352.61 815.00 C 345.22 807.73 338.11 800.16 330.47 793.15 C 323.20 800.44 315.90 807.70 308.64 815.00 M 341.88 848.26 C 349.21 855.59 356.53 862.93 363.88 870.25 C 371.21 862.92 378.55 855.59 385.87 848.25 C 378.58 840.87 371.19 833.61 363.75 826.39 C 356.45 833.66 349.17 840.96 341.88 848.26 Z" />
</g>
</svg>
