<?xml version="1.0" encoding="UTF-8" ?>
<!DOCTYPE svg PUBLIC "-//W3C//DTD SVG 1.1//EN" "http://www.w3.org/Graphics/SVG/1.1/DTD/svg11.dtd">
<svg width="700pt" height="547pt" viewBox="0 0 700 547" version="1.1" xmlns="http://www.w3.org/2000/svg">
<g id="#a5acb9ff">
<path fill="#a5acb9" opacity="1.00" d=" M 23.49 46.00 C 23.71 28.93 40.35 15.10 56.97 15.71 C 65.55 16.04 74.25 19.50 80.09 25.93 C 85.71 31.80 88.82 39.86 88.98 47.96 C 89.13 57.94 88.76 67.94 89.21 77.92 C 89.50 112.45 88.80 146.97 89.01 181.50 C 145.62 181.60 202.25 181.29 258.86 181.66 C 331.90 181.88 404.94 181.68 477.98 181.76 C 503.00 181.23 528.04 181.62 553.06 181.50 C 575.63 181.70 598.18 181.14 620.74 181.26 C 620.39 137.16 620.51 93.06 620.50 48.96 C 620.72 38.60 625.13 27.76 633.88 21.76 C 639.08 18.61 644.89 16.14 651.04 15.83 C 662.73 15.15 674.85 20.78 681.18 30.78 C 686.22 38.86 686.20 48.79 686.52 58.00 C 686.10 69.34 686.28 80.70 686.25 92.05 C 686.25 228.02 686.25 363.99 686.25 499.96 C 686.48 510.97 686.93 522.98 680.63 532.59 C 675.80 540.39 666.84 543.91 658.64 547.00 L 646.80 547.00 C 640.71 544.03 634.22 541.43 629.15 536.80 C 623.15 530.74 622.06 521.88 620.01 514.00 C 592.35 514.19 564.71 513.59 537.05 513.75 C 516.35 513.64 495.65 514.00 474.96 513.49 C 392.65 513.61 310.33 513.25 228.02 513.75 C 181.93 513.75 135.85 513.73 89.76 513.76 C 88.01 524.07 84.09 535.07 75.03 541.14 C 70.49 543.85 65.53 546.07 60.30 547.00 L 52.34 547.00 C 39.96 545.20 28.69 536.26 24.78 524.28 C 22.85 518.72 23.64 512.78 23.50 507.03 C 23.49 353.35 23.51 199.67 23.49 46.00 M 89.00 248.50 C 88.83 287.01 89.24 325.50 89.25 364.01 C 88.74 391.58 89.11 419.17 89.00 446.75 C 135.67 447.25 182.35 446.89 229.02 447.00 C 335.34 447.01 441.65 446.99 547.97 447.01 C 572.30 446.30 596.67 447.21 621.01 446.47 C 620.56 441.66 620.80 436.83 620.75 432.02 C 620.94 414.99 620.38 397.97 620.50 380.95 C 620.49 352.29 620.51 323.64 620.49 294.98 C 621.00 279.49 620.65 263.99 620.74 248.49 C 598.15 248.40 575.56 248.76 552.98 248.24 C 405.98 248.27 258.97 248.23 111.97 248.26 C 104.32 248.69 96.66 248.43 89.00 248.50 Z" />
</g>
<g id="#1e3050ff">
<path fill="#1e3050" opacity="1.00" d=" M 533.89 60.87 C 538.12 54.39 548.88 54.22 553.38 60.54 C 555.92 63.43 555.82 67.46 555.79 71.07 C 560.62 71.53 565.52 74.28 567.10 79.10 C 569.64 85.13 566.12 92.87 559.87 94.84 C 552.42 97.05 544.33 92.61 537.07 95.96 C 531.91 99.33 526.21 102.66 523.25 108.30 C 519.63 114.85 519.69 122.99 514.91 128.94 C 510.23 134.95 502.69 138.85 495.01 138.54 C 485.08 138.51 475.74 131.38 472.82 121.94 C 472.34 120.65 471.93 119.15 470.63 118.43 C 468.62 117.07 465.57 118.54 465.43 121.00 C 467.80 133.23 478.61 143.15 490.88 144.91 C 503.02 147.00 516.00 140.87 522.30 130.34 C 526.39 123.95 526.33 115.83 530.56 109.52 C 532.90 106.29 536.46 104.26 539.88 102.35 C 548.40 112.59 554.33 125.48 554.21 138.98 C 553.99 146.17 551.03 153.89 544.63 157.74 C 536.90 162.60 527.72 164.41 518.75 165.23 C 500.20 166.69 481.52 166.68 462.99 164.94 C 454.11 164.01 445.00 161.68 437.75 156.27 C 430.13 149.99 429.16 139.02 431.05 129.95 C 433.61 114.46 443.69 101.37 455.54 91.60 C 464.45 84.65 474.78 79.11 485.97 77.04 C 498.26 74.78 510.39 79.77 520.85 85.80 C 524.63 83.10 529.83 81.01 531.01 76.03 C 532.23 71.04 530.87 65.36 533.89 60.87 Z" />
<path fill="#1e3050" opacity="1.00" d=" M 168.23 307.24 C 170.92 303.89 173.97 300.86 177.00 297.82 C 184.00 305.01 188.86 314.15 190.97 323.96 C 198.60 321.61 206.82 322.67 213.84 326.33 C 220.88 322.25 229.77 321.48 237.28 324.72 C 248.80 329.27 255.22 343.12 251.66 354.92 C 247.39 371.95 243.27 389.01 238.87 406.01 C 237.61 410.58 237.02 415.44 234.56 419.58 C 229.78 428.03 219.80 433.47 210.07 432.23 C 206.15 431.83 202.47 430.32 198.90 428.75 C 190.58 433.44 180.03 433.81 171.81 428.67 C 167.10 430.62 162.24 432.69 157.01 432.40 C 146.13 432.12 135.81 424.09 133.37 413.39 C 128.47 394.01 123.67 374.60 118.80 355.22 C 116.92 348.09 117.69 340.08 122.01 333.96 C 127.36 325.48 138.00 321.42 147.75 322.94 C 140.71 331.19 136.73 342.32 139.20 353.15 C 142.79 368.56 146.90 383.86 150.56 399.26 C 153.38 398.71 156.16 397.99 158.87 397.06 C 155.47 384.33 152.43 371.50 149.18 358.73 C 147.98 353.87 146.43 348.90 147.20 343.84 C 148.03 336.27 152.32 328.76 159.31 325.35 C 164.95 322.40 171.54 322.17 177.70 323.22 C 176.08 317.14 172.69 311.66 168.23 307.24 Z" />
<path fill="#1e3050" opacity="1.00" d=" M 337.71 311.14 C 335.25 308.24 336.73 303.43 340.13 302.02 C 342.53 300.80 345.42 302.02 347.15 303.84 C 351.87 308.87 354.94 315.20 357.08 321.71 C 367.75 322.55 378.42 325.02 387.99 329.89 C 391.04 331.10 391.02 336.10 387.83 337.10 C 384.53 337.97 381.04 337.31 377.68 337.51 C 379.39 340.19 381.73 342.71 382.31 345.94 C 381.46 348.00 379.40 350.09 376.97 349.19 C 367.98 345.61 359.22 341.46 350.29 337.75 C 341.17 341.65 332.16 345.81 322.96 349.51 C 320.31 349.82 318.95 347.25 318.24 345.14 C 319.59 342.54 321.17 340.08 322.86 337.70 C 319.69 337.37 316.50 337.63 313.33 337.43 C 311.02 337.03 309.96 334.12 310.73 332.09 C 311.26 329.91 313.65 329.38 315.38 328.49 C 324.49 324.36 334.41 322.39 344.34 321.68 C 342.71 317.82 340.44 314.30 337.71 311.14 Z" />
<path fill="#1e3050" opacity="1.00" d=" M 304.20 339.87 C 306.02 341.80 308.05 343.52 310.32 344.91 C 310.51 350.24 313.95 355.26 319.17 356.74 C 323.43 358.36 327.63 356.02 331.48 354.42 C 337.74 351.74 343.99 349.05 350.21 346.31 C 358.56 349.63 366.63 353.62 375.05 356.73 C 382.57 359.24 390.59 352.38 390.44 344.69 C 392.79 343.57 394.88 341.97 396.45 339.87 C 416.39 355.43 419.54 387.38 403.83 406.97 C 393.17 420.07 376.35 426.69 359.90 428.34 C 339.55 430.38 317.42 426.20 301.79 412.27 C 283.85 396.29 281.99 366.29 296.68 347.59 C 298.86 344.72 301.48 342.23 304.20 339.87 Z" />
</g>
</svg>
