
<svg class=" azul5 " width="35" viewBox="0 0 120 121" version="1.1" xmlns="http://www.w3.org/2000/svg"><g id="#f9f9f9ff"></g><g id="#42424cff"><path fill="currentColor" opacity="1.00" d=" M 34.38 7.59 C 49.95 4.43 66.68 14.14 71.86 29.10 C 75.37 39.43 74.05 51.63 67.30 60.39 C 58.79 72.26 41.92 77.57 28.33 71.80 C 13.48 66.38 3.86 49.44 7.43 33.92 C 9.94 20.76 21.10 9.73 34.38 7.59 M 13.43 41.02 C 13.32 49.23 17.82 56.90 23.90 62.15 C 27.25 63.87 30.49 65.92 34.21 66.78 C 44.78 69.43 56.66 64.60 62.62 55.53 C 67.21 49.02 68.04 40.52 66.19 32.91 C 62.61 20.24 48.95 11.63 35.98 14.07 C 23.18 15.83 12.86 28.11 13.43 41.02 Z" /><path fill="currentColor" opacity="1.00" d=" M 28.25 19.96 C 29.23 20.54 30.55 21.25 29.54 22.53 C 25.62 25.51 21.96 29.23 20.51 34.06 C 17.54 42.66 21.14 53.02 28.73 57.98 C 28.75 59.15 28.41 60.17 27.07 60.35 C 22.92 57.18 19.21 53.13 17.80 47.98 C 14.23 37.67 18.79 25.41 28.25 19.96 Z" /><path fill="currentColor" opacity="1.00" d=" M 58.38 71.59 C 63.30 68.18 67.68 64.03 71.04 59.04 C 72.54 60.58 74.22 61.99 75.41 63.81 C 75.69 65.36 74.27 66.35 73.42 67.40 C 70.68 70.06 68.01 72.78 65.29 75.45 C 62.18 76.90 60.50 73.08 58.38 71.59 Z" /><path fill="currentColor" opacity="1.00" d=" M 68.09 75.90 C 70.58 73.28 73.08 70.66 75.75 68.22 C 86.32 75.79 96.36 84.20 104.90 94.04 C 107.52 97.42 110.38 100.94 111.19 105.27 C 112.01 108.73 108.38 112.05 104.98 111.29 C 99.55 110.16 95.24 106.39 91.20 102.82 C 82.44 94.83 74.87 85.60 68.09 75.90 Z" /></g></svg>
