<?xml version="1.0" encoding="UTF-8" ?>
<!DOCTYPE svg PUBLIC "-//W3C//DTD SVG 1.1//EN" "http://www.w3.org/Graphics/SVG/1.1/DTD/svg11.dtd">
<svg width="201pt" height="173pt" viewBox="0 0 201 173" version="1.1" xmlns="http://www.w3.org/2000/svg">
<g id="#ffffffff">
</g>
<g id="#a5acb9ff">
<path fill="#a5acb9" opacity="1.00" d=" M 25.45 4.58 C 28.16 3.44 31.42 4.56 33.38 6.60 C 36.15 10.34 34.58 15.39 36.49 19.46 C 39.34 26.19 45.44 30.67 49.26 36.76 C 53.49 42.60 55.13 49.93 55.14 57.04 C 54.91 61.96 49.22 65.47 44.80 63.16 C 41.08 61.82 40.40 57.51 40.39 54.06 C 40.22 47.45 35.56 42.31 31.32 37.73 C 25.62 31.40 21.22 23.61 20.68 14.95 C 19.92 10.98 21.05 5.82 25.45 4.58 Z" />
<path fill="#a5acb9" opacity="1.00" d=" M 60.45 4.58 C 63.01 3.46 65.92 4.51 67.99 6.15 C 71.28 9.80 69.51 15.19 71.46 19.40 C 74.29 26.15 80.41 30.64 84.25 36.74 C 88.49 42.59 90.13 49.92 90.14 57.04 C 89.91 62.26 83.62 65.69 79.18 62.86 C 74.71 60.64 75.86 55.01 74.97 50.99 C 73.10 43.17 65.95 38.52 61.87 31.99 C 57.63 26.23 55.66 19.09 55.52 12.01 C 55.39 8.82 57.26 5.48 60.45 4.58 Z" />
<path fill="#a5acb9" opacity="1.00" d=" M 113.71 46.69 C 126.56 35.93 147.43 36.74 159.20 48.75 C 166.41 55.10 169.94 64.60 170.30 74.04 C 147.05 73.94 123.79 74.04 100.54 74.00 C 100.47 63.49 105.42 53.15 113.71 46.69 Z" />
</g>
<g id="#1e3050ff">
<path fill="#1e3050" opacity="1.00" d=" M 21.13 83.93 C 21.03 78.62 25.53 73.87 30.92 74.03 C 54.12 73.95 77.33 74.03 100.54 74.00 C 123.79 74.04 147.05 73.94 170.30 74.04 C 175.59 74.14 179.51 78.89 179.67 83.99 C 183.72 84.03 188.36 83.42 191.68 86.29 C 196.58 90.15 196.32 98.69 191.09 102.16 C 186.59 105.19 180.85 103.61 175.78 104.01 C 169.53 122.79 156.38 139.34 138.91 148.83 C 136.10 149.70 136.71 152.91 135.92 155.15 C 134.51 160.29 129.44 164.09 124.10 163.98 C 108.39 164.03 92.66 163.99 76.95 164.00 C 73.04 164.08 69.12 162.33 66.79 159.16 C 64.59 156.54 64.32 153.01 63.54 149.82 C 45.39 140.41 31.24 123.59 25.04 104.12 C 19.96 103.53 14.30 105.19 9.72 102.29 C 4.08 98.75 4.09 89.23 9.73 85.71 C 13.09 83.44 17.31 84.08 21.13 83.93 Z" />
</g>
</svg>
