<?xml version="1.0" encoding="UTF-8" ?>
<!DOCTYPE svg PUBLIC "-//W3C//DTD SVG 1.1//EN" "http://www.w3.org/Graphics/SVG/1.1/DTD/svg11.dtd">
<svg width="612pt" height="612pt" viewBox="0 0 612 612" version="1.1" xmlns="http://www.w3.org/2000/svg">
<g id="#0079f8ff">
<path fill="#0079f8" opacity="1.00" d=" M 302.86 3.92 C 311.87 1.47 320.63 5.92 328.83 9.11 C 397.75 36.98 468.18 61.04 536.64 90.08 C 506.13 102.48 475.11 113.57 444.52 125.76 C 443.73 151.31 444.19 176.87 444.77 202.42 C 421.70 181.86 395.73 163.92 366.50 153.35 C 338.32 142.99 307.05 140.94 277.90 148.39 C 240.79 157.71 208.16 179.64 180.29 205.27 C 179.52 178.91 179.21 152.53 178.18 126.17 C 161.19 117.61 142.68 112.72 124.28 108.25 C 124.30 128.16 123.34 148.10 124.38 167.99 C 126.11 171.15 128.72 173.88 129.62 177.47 C 131.78 183.78 129.78 190.71 125.99 195.96 C 124.09 198.39 125.15 201.61 125.80 204.30 C 128.24 213.34 131.34 222.18 134.53 230.98 C 124.31 230.81 114.12 231.47 103.90 231.23 C 107.23 221.88 110.53 212.52 113.04 202.91 C 113.71 200.52 114.01 197.75 112.27 195.73 C 108.91 190.87 107.00 184.76 108.47 178.89 C 109.25 174.72 112.14 171.49 114.17 167.91 C 114.90 150.61 114.34 133.28 114.52 115.97 C 114.41 110.92 114.15 104.59 109.41 101.58 C 101.23 97.17 92.17 94.75 83.70 91.00 C 86.76 88.17 90.10 85.52 94.02 83.98 C 163.72 57.54 233.25 30.61 302.86 3.92 Z" />
<path fill="#0079f8" opacity="1.00" d=" M 237.25 177.21 C 263.95 162.89 294.55 154.88 324.95 157.44 C 354.37 159.64 382.42 171.11 407.02 187.02 C 420.40 195.61 432.87 205.52 444.73 216.10 C 445.63 231.79 445.64 247.72 442.45 263.17 C 437.53 283.14 427.68 301.83 414.36 317.47 C 398.96 335.59 378.61 349.43 356.16 357.25 C 329.51 366.53 299.94 367.06 272.92 358.96 C 243.83 350.20 217.89 331.32 200.80 306.18 C 190.67 291.44 183.45 274.68 179.94 257.14 C 177.30 244.34 177.30 230.67 181.07 218.14 C 197.95 202.22 216.77 188.19 237.25 177.21 Z" />
<path fill="#0079f8" opacity="1.00" d=" M 431.54 367.81 C 439.91 366.31 449.05 367.92 455.91 373.11 C 460.49 376.59 463.91 381.33 466.74 386.28 C 485.56 419.43 504.39 452.57 523.19 485.73 C 528.98 496.27 530.22 509.44 525.56 520.64 C 521.54 530.80 512.84 538.64 502.87 542.81 C 459.35 560.93 415.85 579.13 372.33 597.25 C 363.59 600.75 355.07 605.02 345.77 606.88 C 328.02 610.51 309.27 609.71 292.02 604.04 C 242.80 584.17 193.43 564.67 144.14 544.95 C 120.65 534.89 108.98 504.08 119.96 480.99 C 134.99 448.33 150.02 415.68 165.00 383.01 C 169.08 373.86 178.78 367.10 188.96 367.72 C 200.49 367.87 209.99 375.09 219.59 380.53 C 275.09 411.82 346.62 412.24 402.43 381.49 C 411.85 376.42 420.72 369.55 431.54 367.81 Z" />
</g>
</svg>
