<?xml version="1.0" encoding="UTF-8" ?>
<!DOCTYPE svg PUBLIC "-//W3C//DTD SVG 1.1//EN" "http://www.w3.org/Graphics/SVG/1.1/DTD/svg11.dtd">
<svg width="169pt" height="170pt" viewBox="0 0 169 170" version="1.1" xmlns="http://www.w3.org/2000/svg">
<g id="#ffffffff">
</g>
<g id="#1e3050ff">
<path fill="#1e3050" opacity="1.00" d=" M 75.48 3.79 C 80.65 3.52 86.52 1.62 91.14 4.88 C 96.54 8.51 96.52 17.56 91.10 21.16 C 87.02 24.07 81.79 22.48 77.20 23.53 C 61.57 25.40 46.89 33.84 37.41 46.41 C 28.54 57.82 24.40 72.61 25.38 86.97 C 26.21 103.48 34.36 119.44 47.29 129.76 C 57.81 138.42 71.46 142.99 85.04 143.00 C 89.62 142.88 94.23 146.14 94.93 150.80 C 96.46 156.44 92.05 162.63 86.18 162.97 C 70.64 162.89 54.99 158.70 42.00 150.04 C 24.10 138.53 11.06 119.56 7.11 98.61 C 3.96 83.22 5.64 66.93 11.60 52.40 C 22.22 26.38 47.46 6.85 75.48 3.79 Z" />
<path fill="#1e3050" opacity="1.00" d=" M 111.43 43.78 C 113.73 37.65 122.67 36.19 127.15 40.77 C 138.90 52.39 150.55 64.13 162.24 75.81 C 166.15 79.58 166.16 86.41 162.24 90.18 C 150.56 101.86 138.91 113.59 127.17 125.21 C 122.79 129.71 114.07 128.45 111.58 122.55 C 109.19 118.21 110.88 112.67 114.54 109.60 C 120.31 104.19 125.61 98.26 131.68 93.19 C 109.11 92.68 86.49 93.28 63.92 92.88 C 57.66 92.27 53.78 85.10 56.13 79.42 C 57.20 75.59 61.09 73.26 64.89 73.02 C 87.15 72.85 109.43 73.26 131.68 72.82 C 125.61 67.74 120.31 61.81 114.54 56.40 C 110.99 53.41 109.24 48.08 111.43 43.78 Z" />
</g>
</svg>
