<?xml version="1.0" encoding="UTF-8" ?>
<!DOCTYPE svg PUBLIC "-//W3C//DTD SVG 1.1//EN" "http://www.w3.org/Graphics/SVG/1.1/DTD/svg11.dtd">
<svg width="207pt" height="170pt" viewBox="0 0 207 170" version="1.1" xmlns="http://www.w3.org/2000/svg">
<g id="#ffffffff">
<path fill="#ffffff" opacity="1.00" d=" M 0.00 0.00 L 207.00 0.00 L 207.00 170.00 L 0.00 170.00 L 0.00 0.00 M 22.70 3.62 C 19.94 4.41 18.20 7.01 17.76 9.73 C 16.87 14.48 15.97 19.23 15.21 24.00 C 12.84 38.78 16.29 54.63 25.49 66.57 C 33.23 76.66 41.90 86.04 51.13 94.79 C 55.20 98.34 58.50 102.71 62.88 105.92 C 74.15 94.48 85.56 83.18 96.91 71.83 C 75.21 49.94 53.43 28.13 31.72 6.25 C 29.52 3.79 25.92 2.12 22.70 3.62 M 155.60 4.72 C 144.85 11.90 134.12 19.13 123.37 26.33 C 116.64 30.84 111.53 37.91 110.15 45.98 C 108.38 53.86 110.25 62.26 114.56 69.02 C 88.80 94.46 63.18 120.05 37.55 145.62 C 32.70 150.13 33.79 159.38 40.08 161.98 C 44.17 164.07 49.29 162.63 52.21 159.24 C 77.52 133.80 102.86 108.39 128.16 82.94 C 134.78 86.67 142.58 89.10 150.20 87.46 C 158.44 86.31 165.96 81.42 170.58 74.54 C 176.47 65.75 182.36 56.96 188.24 48.18 C 190.46 44.86 192.94 41.68 194.51 37.98 C 193.82 34.10 188.76 31.31 185.91 34.85 C 176.27 44.26 166.78 53.82 157.09 63.17 C 155.02 65.49 150.64 64.02 150.25 61.00 C 149.48 58.23 151.95 56.31 153.52 54.44 C 161.44 45.38 169.30 36.27 177.21 27.20 C 179.60 24.95 179.63 20.12 176.32 18.69 C 174.21 17.32 171.86 18.82 170.28 20.25 C 160.60 28.60 150.88 36.89 141.23 45.26 C 139.83 46.45 137.92 47.91 135.99 46.97 C 134.04 46.55 133.37 44.55 132.53 43.00 C 133.17 41.83 133.72 40.59 134.65 39.61 C 143.89 30.20 153.22 20.89 162.48 11.50 C 164.86 9.34 164.22 4.66 161.08 3.52 C 159.23 2.35 157.17 3.72 155.60 4.72 M 111.90 114.51 C 127.05 129.55 141.95 144.86 157.09 159.91 C 160.43 163.36 166.17 163.96 170.08 161.14 C 175.07 157.74 175.59 149.85 171.16 145.75 C 156.87 131.43 142.41 117.28 128.14 102.94 C 127.25 102.06 126.21 101.38 125.31 100.53 C 121.05 105.38 115.94 109.46 111.90 114.51 Z" />
</g>
<g id="#a5acb9ff">
<path fill="#a5acb9" opacity="1.00" d=" M 22.70 3.62 C 25.92 2.12 29.52 3.79 31.72 6.25 C 53.43 28.13 75.21 49.94 96.91 71.83 C 85.56 83.18 74.15 94.48 62.88 105.92 C 58.50 102.71 55.20 98.34 51.13 94.79 C 41.90 86.04 33.23 76.66 25.49 66.57 C 16.29 54.63 12.84 38.78 15.21 24.00 C 15.97 19.23 16.87 14.48 17.76 9.73 C 18.20 7.01 19.94 4.41 22.70 3.62 Z" />
<path fill="#a5acb9" opacity="1.00" d=" M 111.90 114.51 C 115.94 109.46 121.05 105.38 125.31 100.53 C 126.21 101.38 127.25 102.06 128.14 102.94 C 142.41 117.28 156.87 131.43 171.16 145.75 C 175.59 149.85 175.07 157.74 170.08 161.14 C 166.17 163.96 160.43 163.36 157.09 159.91 C 141.95 144.86 127.05 129.55 111.90 114.51 Z" />
</g>
<g id="#1e3050ff">
<path fill="#1e3050" opacity="1.00" d=" M 155.60 4.72 C 157.17 3.72 159.23 2.35 161.08 3.52 C 164.22 4.66 164.86 9.34 162.48 11.50 C 153.22 20.89 143.89 30.20 134.65 39.61 C 133.72 40.59 133.17 41.83 132.53 43.00 C 133.37 44.55 134.04 46.55 135.99 46.97 C 137.92 47.91 139.83 46.45 141.23 45.26 C 150.88 36.89 160.60 28.60 170.28 20.25 C 171.86 18.82 174.21 17.32 176.32 18.69 C 179.63 20.12 179.60 24.95 177.21 27.20 C 169.30 36.27 161.44 45.38 153.52 54.44 C 151.95 56.31 149.48 58.23 150.25 61.00 C 150.64 64.02 155.02 65.49 157.09 63.17 C 166.78 53.82 176.27 44.26 185.91 34.85 C 188.76 31.31 193.82 34.10 194.51 37.98 C 192.94 41.68 190.46 44.86 188.24 48.18 C 182.36 56.96 176.47 65.75 170.58 74.54 C 165.96 81.42 158.44 86.31 150.20 87.46 C 142.58 89.10 134.78 86.67 128.16 82.94 C 102.86 108.39 77.52 133.80 52.21 159.24 C 49.29 162.63 44.17 164.07 40.08 161.98 C 33.79 159.38 32.70 150.13 37.55 145.62 C 63.18 120.05 88.80 94.46 114.56 69.02 C 110.25 62.26 108.38 53.86 110.15 45.98 C 111.53 37.91 116.64 30.84 123.37 26.33 C 134.12 19.13 144.85 11.90 155.60 4.72 Z" />
</g>
</svg>
