<?xml version="1.0" encoding="UTF-8" ?>
<!DOCTYPE svg PUBLIC "-//W3C//DTD SVG 1.1//EN" "http://www.w3.org/Graphics/SVG/1.1/DTD/svg11.dtd">
<svg width="123pt" height="164pt" viewBox="0 0 123 164" version="1.1" xmlns="http://www.w3.org/2000/svg">
<g id="#ffffffff">
</g>
<g id="#a5acb9ff">
<path fill="#a5acb9" opacity="1.00" d=" M 20.90 9.88 C 33.94 4.67 48.12 3.38 62.03 3.01 C 73.78 3.43 85.69 4.25 96.94 7.90 C 103.27 9.92 110.00 12.34 114.43 17.55 C 116.73 20.08 116.52 23.65 116.77 26.83 C 113.46 31.33 108.76 34.54 103.59 36.56 C 93.88 40.51 83.38 41.88 73.02 42.88 C 55.59 43.50 37.65 43.13 21.11 36.97 C 15.55 34.95 10.43 31.63 6.91 26.81 C 7.34 24.07 6.73 20.95 8.48 18.59 C 11.36 14.22 16.24 11.85 20.90 9.88 Z" />
<path fill="#a5acb9" opacity="1.00" d=" M 47.33 77.21 C 55.08 71.95 65.78 71.40 74.02 75.85 C 79.94 78.85 84.45 84.55 86.15 90.94 C 86.71 96.70 87.07 102.86 84.32 108.16 C 81.25 115.20 74.81 120.66 67.27 122.27 C 56.52 125.00 44.60 119.19 39.79 109.26 C 37.06 104.63 37.05 99.15 37.12 93.95 C 36.58 93.78 35.50 93.44 34.95 93.27 C 35.40 93.14 36.28 92.88 36.72 92.75 C 38.63 86.68 41.84 80.74 47.33 77.21 Z" />
</g>
<g id="#1e3050ff">
<path fill="#1e3050" opacity="1.00" d=" M 6.91 26.81 C 10.43 31.63 15.55 34.95 21.11 36.97 C 37.65 43.13 55.59 43.50 73.02 42.88 C 83.38 41.88 93.88 40.51 103.59 36.56 C 108.76 34.54 113.46 31.33 116.77 26.83 C 116.33 64.84 116.76 102.87 116.56 140.88 C 116.25 146.46 111.57 150.46 107.13 153.16 C 93.42 160.90 77.37 162.28 61.96 163.16 C 46.52 162.30 30.44 160.94 16.68 153.23 C 11.85 150.48 7.01 146.01 7.06 140.01 C 7.43 118.01 6.94 96.01 7.18 74.02 C 7.02 58.29 7.53 42.53 6.91 26.81 M 47.33 77.21 C 41.84 80.74 38.63 86.68 36.72 92.75 C 36.28 92.88 35.40 93.14 34.95 93.27 C 30.47 91.99 25.97 90.72 21.67 88.87 C 21.53 105.57 21.56 122.27 21.66 138.97 C 30.85 145.24 42.17 146.83 53.01 147.77 C 63.71 148.37 74.54 148.01 85.06 145.79 C 90.29 144.64 95.52 143.06 100.06 140.15 C 101.18 139.50 102.44 138.48 102.18 137.01 C 102.12 120.98 102.26 104.96 102.10 88.94 C 97.08 90.74 92.07 92.71 86.74 93.41 C 86.59 92.79 86.30 91.56 86.15 90.94 C 84.45 84.55 79.94 78.85 74.02 75.85 C 65.78 71.40 55.08 71.95 47.33 77.21 Z" />
</g>
</svg>
