<?xml version="1.0" encoding="UTF-8" ?>
<!DOCTYPE svg PUBLIC "-//W3C//DTD SVG 1.1//EN" "http://www.w3.org/Graphics/SVG/1.1/DTD/svg11.dtd">
<svg width="70pt" height="70pt" viewBox="0 0 612 612" version="1.1" xmlns="http://www.w3.org/2000/svg">
<g id="#007affff">
<path fill="#007aff" opacity="1.00" d=" M 140.24 12.16 C 145.18 7.57 151.73 3.32 158.80 4.64 C 163.51 5.67 167.85 8.25 171.27 11.63 C 202.92 43.32 234.61 74.98 266.27 106.65 C 272.60 113.06 279.28 119.18 284.66 126.45 C 296.32 141.80 303.57 160.64 304.30 179.97 C 305.94 206.32 295.00 232.45 277.16 251.57 C 343.22 317.57 409.25 383.62 475.27 449.67 C 495.19 440.76 520.58 443.17 536.96 458.16 C 553.44 473.97 569.35 490.36 585.57 506.44 C 590.00 511.05 594.93 515.22 598.66 520.45 C 607.97 533.04 611.98 549.40 609.30 564.84 C 604.51 591.26 579.05 612.83 551.94 611.52 C 537.27 611.30 522.92 604.80 512.46 594.60 C 499.57 581.44 486.20 568.77 473.33 555.61 C 466.92 548.69 459.74 542.48 453.82 535.13 C 441.30 518.69 439.87 495.42 448.17 476.79 C 382.12 410.75 316.09 344.70 250.04 278.67 C 233.50 294.17 211.79 304.58 189.00 305.81 C 166.16 307.41 143.02 300.11 124.90 286.18 C 118.18 281.27 112.56 275.11 106.67 269.29 C 74.74 237.89 43.28 206.01 11.54 174.41 C 6.35 169.10 1.38 161.82 3.35 154.02 C 5.79 145.03 13.47 139.06 19.83 132.81 C 48.25 104.24 76.95 75.94 105.19 47.19 C 116.88 35.52 128.53 23.81 140.24 12.16 Z" />
<path fill="#007aff" opacity="1.00" d=" M 406.96 24.85 C 452.00 -2.02 512.88 -0.30 555.71 30.27 C 581.62 48.70 599.85 77.14 606.82 108.07 C 615.53 145.80 606.58 187.29 582.85 217.94 C 560.77 246.87 526.47 266.37 490.11 269.51 C 457.58 272.61 424.37 262.76 398.05 243.58 C 385.38 256.19 372.82 268.90 360.10 281.45 C 351.09 272.39 341.91 263.48 333.05 254.27 C 345.75 241.84 358.04 229.00 370.91 216.74 C 360.37 201.28 351.87 184.19 347.72 165.87 C 342.87 143.86 343.35 120.57 349.98 98.98 C 359.08 68.44 379.58 41.29 406.96 24.85 M 472.39 65.51 C 467.94 66.83 464.37 69.99 461.05 73.10 C 446.59 87.29 432.75 102.11 418.05 116.07 C 412.84 121.59 406.05 126.90 405.05 134.94 C 403.22 146.10 413.87 157.29 425.12 155.87 C 430.43 155.52 435.01 152.31 438.69 148.69 C 453.68 133.70 468.67 118.71 483.66 103.71 C 489.09 98.30 495.90 92.40 495.79 84.05 C 496.56 72.20 483.67 62.35 472.39 65.51 M 525.47 119.44 C 521.27 120.81 517.86 123.74 514.72 126.74 C 509.96 131.30 505.39 136.05 500.70 140.67 C 489.39 152.69 477.22 163.84 465.74 175.69 C 461.86 179.87 458.45 185.09 458.48 190.99 C 458.71 194.61 459.48 198.37 461.66 201.36 C 467.30 209.46 479.86 212.29 487.94 206.20 C 506.60 189.11 523.65 170.36 541.95 152.90 C 546.46 148.19 550.46 141.93 549.38 135.12 C 548.37 124.12 535.99 115.82 525.47 119.44 Z" />
<path fill="#007aff" opacity="1.00" d=" M 137.56 449.82 C 176.02 411.41 214.38 372.89 252.91 334.55 C 261.93 343.57 271.00 352.55 279.96 361.64 C 241.63 400.10 203.09 438.35 164.85 476.90 C 173.92 496.94 171.25 522.67 155.96 538.99 C 137.89 557.93 118.80 575.87 100.61 594.70 C 89.21 605.38 73.72 612.17 57.95 611.52 C 29.66 611.14 4.06 586.23 2.99 557.95 C 1.99 541.98 8.36 525.90 19.42 514.45 C 34.41 499.45 49.41 484.48 64.39 469.47 C 72.19 461.06 80.84 452.76 91.80 448.71 C 106.44 442.99 123.09 444.12 137.56 449.82 Z" />
</g>
</svg>
