<?xml version="1.0" encoding="UTF-8" ?>
<!DOCTYPE svg PUBLIC "-//W3C//DTD SVG 1.1//EN" "http://www.w3.org/Graphics/SVG/1.1/DTD/svg11.dtd">
<svg width="209pt" height="157pt" viewBox="0 0 209 157" version="1.1" xmlns="http://www.w3.org/2000/svg">
<g id="#ffffffff">
</g>
<g id="#1e3050ff">
<path fill="#1e3050" opacity="1.00" d=" M 14.27 3.98 C 14.46 2.65 15.25 0.89 16.88 1.10 C 18.86 1.07 19.26 3.44 19.31 4.97 C 19.82 17.84 20.96 30.67 21.60 43.53 C 23.52 43.53 25.44 43.52 27.35 43.52 C 28.71 32.01 30.01 20.50 31.36 8.99 C 31.58 6.45 31.84 3.90 32.55 1.44 C 33.85 1.24 35.18 1.16 36.43 1.70 C 38.12 15.65 39.60 29.62 41.40 43.55 C 43.33 43.53 45.25 43.51 47.17 43.47 C 47.74 29.98 48.77 16.53 49.61 3.06 C 49.84 0.77 52.53 0.90 54.06 1.90 C 56.82 15.30 60.21 28.59 63.23 41.94 C 65.60 49.73 63.16 58.71 57.51 64.50 C 53.36 68.85 47.36 70.54 41.56 71.17 C 41.60 95.42 41.65 119.66 41.54 143.91 C 41.63 148.93 35.52 152.58 31.16 150.08 C 28.34 149.01 27.02 145.88 27.19 143.04 C 27.03 124.35 27.33 105.65 27.04 86.98 C 27.32 81.75 27.11 76.51 27.22 71.27 C 23.61 70.56 19.86 70.14 16.56 68.40 C 7.52 63.87 2.59 52.61 5.23 42.88 C 8.26 29.92 11.25 16.95 14.27 3.98 Z" />
<path fill="#1e3050" opacity="1.00" d=" M 190.02 4.09 C 193.21 2.69 196.77 -0.12 200.33 1.75 C 203.20 2.87 204.28 6.14 204.22 8.98 C 204.25 53.32 204.22 97.66 204.24 142.00 C 204.29 145.14 203.18 148.99 199.90 150.12 C 195.58 152.51 189.60 148.97 189.59 144.01 C 189.40 128.02 189.56 112.01 189.52 96.01 C 184.02 95.89 178.51 96.20 173.02 95.88 C 168.53 95.41 164.71 91.56 164.58 87.00 C 164.40 74.32 164.57 61.64 164.50 48.95 C 164.36 40.15 165.56 30.96 170.00 23.21 C 174.98 15.36 181.52 8.16 190.02 4.09 Z" />
<path fill="#1e3050" opacity="1.00" d=" M 68.57 19.07 C 83.03 8.73 101.56 4.17 119.14 6.88 C 133.57 8.74 147.23 15.47 157.60 25.67 C 153.83 34.54 154.03 44.34 154.59 53.74 C 149.26 44.31 141.63 35.91 131.74 31.17 C 112.91 21.64 88.19 25.52 73.50 40.76 C 71.96 33.51 70.21 26.30 68.57 19.07 Z" />
<path fill="#1e3050" opacity="1.00" d=" M 102.47 36.71 C 119.87 33.22 138.50 43.38 145.65 59.49 C 149.90 68.75 150.24 79.60 146.97 89.21 C 142.23 102.91 129.52 113.55 115.10 115.47 C 96.75 118.64 77.51 106.69 71.67 89.12 C 67.91 78.24 69.02 65.71 74.96 55.81 C 80.79 45.88 91.06 38.57 102.47 36.71 Z" />
<path fill="#1e3050" opacity="1.00" d=" M 52.18 79.48 C 54.65 78.59 57.01 77.43 59.22 76.02 C 59.18 90.01 65.25 103.91 75.75 113.18 C 87.18 123.73 103.79 128.08 118.98 125.13 C 135.51 122.13 150.12 110.02 155.91 94.23 C 158.64 101.01 165.56 105.28 172.64 106.14 C 166.29 118.93 156.19 129.75 143.71 136.71 C 129.43 144.99 112.06 147.85 95.89 144.53 C 78.72 141.41 63.20 131.17 52.89 117.18 C 51.90 115.94 52.22 114.25 52.09 112.79 C 52.25 101.69 52.16 90.59 52.18 79.48 Z" />
</g>
</svg>
